# xmcd
#
# Track frame offsets: 
#        150
#        10274
#        21880
#        32582
#        43442
#        54845
#        65925
#        79343
#        87862
#        98455
#        109282
#        118617
#        130231
#        143124
#        153826
#        162893
#        172178
#        185591
#        195358
#        205896
#        215263
#        224737
#        235615
#        255878
#        268945
#        276816
#        288657
#        298882
#        308983
#        321150
#
# Disc length: 4431 seconds
#
# Revision: 0
# Processed by: cddbd v1.5.2PL0 Copyright (c) Steve Scherf et al.
# Submitted via: ExactAudioCopy v0.95b4
#
DISCID=c4114d1e
DTITLE=The Beatles  - Library vol. 2 - BBC originals
DYEAR=1900
DGENRE=
TTITLE0=Memphis Tennessee (Chuck Berry)
TTITLE1=Dream baby (Roy Orbison)
TTITLE2=A picture of you (Joe Brown and the Bruvvers)
TTITLE3=Some other guy (Richie Barrett)
TTITLE4=Keep your hands off my baby (Litte Eva)
TTITLE5=Beautiful dreamer (John Leyton)
TTITLE6=Too much monkey business (Chuck Berry)
TTITLE7=I'm talking about you (Chuck Berry)
TTITLE8=I got to find my baby (Chuck Berry)
TTITLE9=Youngblood (The Coasters)
TTITLE10=A shot of rhythm and blues (Arthur Alexander)
TTITLE11=Sure to fall (Carl Perkins)
TTITLE12=Carol (Chuck Berry)
TTITLE13=Soldier of love (Arthur Alexander)
TTITLE14=Lend me your comb
TTITLE15=Clarabella (The Jodimars)
TTITLE16=Nothin' shakin' (Eddie Fontaine)
TTITLE17=Lonesome tears in my eyes (John Burnette)
TTITLE18=So how come (Everly Brothers)
TTITLE19=I'm gonna sit right down and cry (Elvis Presley)
TTITLE20=Crying, waiting, hoping
TTITLE21=To know him is to love him (The Teddy Bears)
TTITLE22=The honeymoon song (Mike Theodorakis)
TTITLE23=I got a woman (Ray Charles)
TTITLE24=Glad all over (carl Perkins)
TTITLE25=I just don't understand (Ann Margret)
TTITLE26=Ooh! My soul (Little Richard)
TTITLE27=Don't ever change (The Crickets)
TTITLE28=Johnny B. Goode (Chuck Berry)
TTITLE29=I forgot to remember to forget (Elvis Presley)
EXTD=
EXTT0=
EXTT1=
EXTT2=
EXTT3=
EXTT4=
EXTT5=
EXTT6=
EXTT7=
EXTT8=
EXTT9=
EXTT10=
EXTT11=
EXTT12=
EXTT13=
EXTT14=
EXTT15=
EXTT16=
EXTT17=
EXTT18=
EXTT19=
EXTT20=
EXTT21=
EXTT22=
EXTT23=
EXTT24=
EXTT25=
EXTT26=
EXTT27=
EXTT28=
EXTT29=
PLAYORDER=
